<svg id="svg" xmlns="http://www.w3.org/2000/svg" xmlns:xlink="http://www.w3.org/1999/xlink" width="200" height="10" viewBox="0, 0, 300, 10"><g id="svgg"><path id="path0" d="M268.095 14.524 C 266.073 16.546,266.324 22.106,268.537 24.320 C 272.510 28.293,279.762 25.073,279.762 19.337 C 279.762 14.157,271.762 10.857,268.095 14.524 M182.143 20.739 C 182.143 23.013,181.339 23.797,178.329 24.458 C 168.295 26.662,161.877 34.866,161.947 45.400 C 161.994 52.475,164.708 59.274,166.077 55.748 C 166.502 54.653,166.273 52.679,165.568 51.362 C 160.584 42.050,168.839 28.832,180.911 26.793 C 183.476 26.359,185.741 25.259,185.943 24.348 C 186.229 23.054,187.193 23.253,190.342 25.256 L 194.374 27.821 190.937 30.571 C 186.873 33.823,185.714 34.011,185.714 31.415 C 185.714 29.060,178.719 30.021,174.170 33.001 C 168.810 36.514,165.995 46.402,169.002 51.157 C 170.422 53.402,172.085 49.857,170.973 46.957 C 169.961 44.322,173.060 37.565,176.330 35.275 C 180.286 32.503,182.143 32.866,182.143 36.409 C 182.143 40.027,182.044 40.053,191.464 33.929 C 200.415 28.109,200.425 28.713,191.286 22.759 C 182.486 17.025,182.143 16.949,182.143 20.739 M36.311 21.726 C 36.026 22.545,31.489 35.221,26.230 49.896 C 20.970 64.570,16.667 76.758,16.667 76.979 C 16.667 77.200,19.302 77.381,22.523 77.381 L 28.380 77.381 30.371 71.387 L 32.362 65.393 43.703 65.732 L 55.044 66.071 57.014 71.429 C 58.933 76.648,59.129 76.795,64.611 77.149 C 71.612 77.600,72.020 80.471,60.454 47.917 L 50.620 20.238 43.725 20.238 C 39.279 20.238,36.646 20.767,36.311 21.726 M133.333 26.190 C 133.333 31.746,133.135 32.143,130.357 32.143 C 126.121 32.143,125.844 40.092,130.060 40.691 C 132.632 41.056,132.762 41.647,133.333 55.627 C 134.009 72.138,135.070 74.275,143.570 76.247 C 153.174 78.475,154.762 77.960,154.762 72.619 C 154.762 68.148,154.549 67.857,151.276 67.857 C 145.030 67.857,143.923 65.427,144.304 52.552 L 144.643 41.071 149.702 40.705 C 157.570 40.136,157.570 32.483,149.702 31.914 L 144.643 31.548 144.280 25.893 L 143.917 20.238 138.625 20.238 L 133.333 20.238 133.333 26.190 M211.905 48.810 L 211.905 77.381 217.262 77.381 L 222.619 77.381 222.619 64.881 L 222.619 52.381 235.119 52.381 L 247.619 52.381 247.619 64.881 L 247.619 77.381 252.976 77.381 L 258.333 77.381 258.333 48.810 L 258.333 20.238 252.976 20.238 L 247.619 20.238 247.619 31.548 L 247.619 42.857 235.119 42.857 L 222.619 42.857 222.619 31.548 L 222.619 20.238 217.262 20.238 L 211.905 20.238 211.905 48.810 M356.548 32.407 C 328.573 42.325,343.618 85.565,371.806 76.262 C 375.855 74.926,384.524 66.760,384.524 64.282 C 384.524 61.934,373.140 62.927,370.833 65.476 C 366.024 70.791,353.571 66.536,353.571 59.578 C 353.571 57.245,354.246 57.143,369.643 57.143 L 385.714 57.143 385.710 51.488 C 385.699 37.169,370.734 27.377,356.548 32.407 M77.381 47.367 C 77.381 73.547,89.898 85.241,105.800 73.918 L 109.524 71.266 109.524 74.324 C 109.524 77.153,109.922 77.381,114.881 77.381 L 120.238 77.381 120.238 54.762 L 120.238 32.143 114.881 32.143 L 109.524 32.143 109.517 43.750 C 109.507 61.834,106.752 67.857,98.491 67.857 C 91.075 67.857,89.286 63.817,89.286 47.078 L 89.286 32.143 83.333 32.143 L 77.381 32.143 77.381 47.367 M266.938 54.464 L 267.262 76.786 272.917 77.149 L 278.571 77.511 278.571 54.827 L 278.571 32.143 272.593 32.143 L 266.614 32.143 266.938 54.464 M289.137 37.798 C 290.345 40.908,294.145 51.086,297.582 60.417 L 303.831 77.381 310.546 77.373 L 317.262 77.366 325.000 56.290 C 329.256 44.698,332.911 34.523,333.123 33.679 C 333.398 32.583,331.853 32.143,327.732 32.143 L 321.955 32.143 316.793 47.917 C 313.953 56.592,311.259 64.097,310.805 64.594 C 310.351 65.090,307.600 58.004,304.692 48.846 L 299.405 32.195 293.172 32.169 L 286.940 32.143 289.137 37.798 M48.161 45.603 L 52.338 57.143 43.899 57.143 C 37.642 57.143,35.605 56.758,36.021 55.655 C 36.330 54.836,38.099 49.495,39.953 43.785 C 41.808 38.076,43.473 33.552,43.654 33.734 C 43.835 33.915,45.863 39.256,48.161 45.603 M199.531 34.319 C 199.074 35.059,199.260 36.712,199.945 37.992 C 205.163 47.742,197.053 61.839,185.203 63.616 C 181.510 64.169,179.762 65.008,179.762 66.225 C 179.762 67.657,179.041 67.506,176.190 65.476 C 171.788 62.341,171.764 61.733,175.947 59.262 C 179.034 57.438,179.365 57.437,180.510 59.253 C 182.321 62.124,190.562 59.394,194.612 54.582 C 197.803 50.789,198.842 37.782,195.833 39.286 C 195.179 39.613,194.775 40.685,194.937 41.667 C 195.610 45.751,193.693 51.633,190.819 54.296 C 186.753 58.065,183.600 58.003,183.115 54.146 L 182.738 51.149 174.579 56.635 L 166.419 62.121 174.244 67.370 C 183.335 73.469,183.333 73.469,183.333 69.890 C 183.333 67.672,184.311 66.899,188.549 65.766 C 199.211 62.914,205.850 53.072,204.260 42.473 C 203.369 36.528,200.850 32.185,199.531 34.319 M370.526 42.828 C 377.423 48.253,375.876 50.000,364.174 50.000 C 352.350 50.000,351.028 48.864,356.494 43.398 C 360.121 39.771,366.319 39.519,370.526 42.828 " stroke="none" fill="#000000" fill-rule="evenodd"></path></g></svg>
