<?xml version="1.0" standalone="no"?>
<!DOCTYPE svg PUBLIC "-//W3C//DTD SVG 20010904//EN"
 "http://www.w3.org/TR/2001/REC-SVG-20010904/DTD/svg10.dtd">
<svg version="1.0" xmlns="http://www.w3.org/2000/svg"
 width="1024.000000pt" height="1024.000000pt" viewBox="0 0 1024.000000 1024.000000"
 preserveAspectRatio="xMidYMid meet">

<g transform="translate(0.000000,1024.000000) scale(0.100000,-0.100000)"
fill="black" stroke="none">
<path d="M0 5120 l0 -5120 5120 0 5120 0 0 5120 0 5120 -5120 0 -5120 0 0
-5120z m845 4168 c-21 -24 -104 -113 -184 -198 -81 -85 -169 -180 -196 -210
-44 -48 -131 -138 -370 -385 -38 -38 -62 -61 -54 -50 16 23 228 253 346 375
45 47 110 117 145 155 76 84 340 355 346 355 2 0 -13 -19 -33 -42z m4595
-1043 c389 -28 759 -129 1106 -303 318 -160 564 -335 826 -590 105 -103 119
-120 141 -181 14 -38 29 -85 33 -106 l7 -38 -151 5 -150 4 -117 110 c-166 155
-226 206 -345 291 -605 433 -1325 595 -2100 472 -968 -153 -1781 -797 -2134
-1691 -264 -668 -238 -1431 69 -2063 141 -291 302 -514 539 -750 89 -88 193
-185 231 -216 201 -162 530 -347 775 -437 719 -262 1496 -235 2204 77 223 99
460 248 634 400 567 496 899 1165 942 1896 21 376 -32 694 -188 1115 -21 54
-21 55 -1 64 10 5 19 15 19 23 0 18 -68 153 -146 290 l-64 112 10 48 c12 50 5
209 -10 249 -8 20 -5 22 33 28 47 8 36 18 146 -134 268 -372 439 -779 512
-1215 23 -143 37 -385 22 -385 -6 0 -14 -7 -17 -16 -5 -13 -3 -14 7 -6 10 9
13 4 15 -20 2 -26 0 -30 -18 -25 -11 3 -20 1 -20 -5 0 -5 -4 -6 -10 -3 -6 3
-7 -1 -4 -9 8 -20 -5 -20 -31 1 -16 13 -17 15 -2 10 11 -4 17 -1 17 10 0 9 -3
13 -7 10 -3 -4 -11 -3 -17 2 -7 6 -12 0 -13 -20 -1 -19 3 -29 12 -29 28 0 23
-15 -6 -16 -20 -1 -30 4 -34 17 -8 24 -17 24 -33 -1 -7 -11 -8 -20 -3 -20 5 0
12 6 14 13 4 9 8 8 16 -3 17 -24 13 -33 -15 -26 -16 4 -23 3 -20 -3 10 -16 -8
-20 -48 -11 l-38 8 5 -34 c4 -20 2 -32 -4 -29 -5 4 -9 -14 -9 -42 -1 -129 -62
-450 -121 -629 -140 -429 -354 -784 -664 -1103 -393 -404 -888 -668 -1471
-786 -226 -46 -373 -58 -659 -52 -359 7 -547 38 -880 148 -200 66 -472 194
-632 298 -83 54 -96 59 -137 56 -25 -3 -48 0 -51 4 -3 5 4 7 16 4 19 -5 20 -4
8 15 -11 18 -15 19 -22 7 -4 -8 -13 -15 -19 -15 -6 0 -5 7 3 18 10 12 8 12
-10 -3 -13 -11 -25 -19 -27 -17 -2 1 -9 2 -16 2 -9 0 -9 -3 0 -12 8 -8 9 -15
1 -25 -16 -19 -32 -16 -27 5 5 19 -10 22 -43 8 -9 -4 -27 -8 -41 -10 -13 -1
-29 -5 -35 -9 -13 -8 -36 17 -25 28 4 5 2 5 -4 2 -26 -15 -336 288 -481 470
-43 54 -105 140 -138 191 -57 88 -60 92 -95 92 -36 0 -38 2 -82 88 -147 279
-248 614 -304 1007 -20 144 -23 504 -5 665 69 616 296 1172 653 1599 143 172
368 386 543 518 598 449 1377 666 2185 608z m100 -807 c158 -398 745 -1823
819 -1992 34 -76 61 -140 61 -141 0 -9 -127 26 -133 37 -4 7 -51 88 -105 181
-100 172 -163 257 -211 281 -41 22 -140 45 -269 64 l-117 17 -51 130 c-28 72
-113 291 -189 488 -76 196 -141 357 -144 357 -10 -1 -110 -248 -323 -800 -32
-85 -63 -160 -69 -166 -5 -6 -39 -14 -75 -18 -109 -11 -251 -43 -308 -69 -67
-31 -112 -93 -236 -321 -59 -109 -91 -157 -105 -160 -11 -2 -41 -8 -67 -14
l-47 -9 13 26 c57 110 714 1718 907 2219 l9 22 293 0 294 0 53 -132z m-1080
37 c0 -11 -132 -321 -143 -337 -7 -10 -70 -46 -142 -82 -505 -248 -881 -684
-1049 -1214 -60 -192 -104 -507 -94 -682 2 -38 2 -67 -1 -65 -2 3 -10 0 -18
-6 -10 -9 -13 -8 -13 5 0 9 5 16 10 16 6 0 10 3 10 8 0 10 -58 13 -65 3 -3 -5
-13 -7 -24 -4 -10 2 -25 -3 -35 -12 -15 -15 -16 -15 -17 2 -1 10 -1 21 0 26 4
25 -30 -7 -47 -46 -47 -107 60 -612 183 -858 47 -94 20 -69 -34 31 -85 159
-166 405 -202 610 -26 150 -36 434 -20 600 21 223 89 475 189 705 251 579 752
1038 1382 1266 102 37 130 44 130 34z m1575 -33 c106 -39 338 -159 450 -234
347 -231 621 -533 818 -899 43 -81 127 -292 126 -316 0 -12 -5 -8 -14 12 -8
17 -14 23 -15 14 0 -29 -25 -52 -48 -45 -12 4 -20 12 -17 17 4 5 -12 9 -34 9
-39 0 -50 -8 -34 -24 13 -13 11 -33 -4 -33 -7 0 -12 6 -9 13 3 7 -8 17 -25 23
-16 5 -29 9 -29 8 0 -1 11 -34 25 -74 96 -285 121 -696 60 -992 -23 -113 -77
-292 -109 -366 l-13 -30 -22 59 -22 59 25 96 c107 406 97 778 -34 1171 -89
271 -264 568 -449 766 -156 166 -281 266 -468 373 l-115 66 -73 183 c-53 132
-69 181 -57 176 10 -4 49 -18 87 -32z m-415 -1692 c52 -6 134 -18 183 -26 82
-15 89 -19 122 -57 53 -62 49 -65 -60 -47 -346 57 -948 59 -1340 5 -55 -7
-101 -12 -102 -11 -6 6 66 94 81 99 25 10 246 38 371 47 147 11 615 4 745 -10z
m-195 -490 c567 -31 1182 -122 1349 -201 26 -12 44 -25 39 -29 -8 -7 -234 -44
-328 -54 -43 -5 -46 -4 -20 5 17 6 46 10 65 10 19 0 30 3 25 7 -13 9 -13 28 0
39 6 4 7 4 3 -1 -6 -7 14 -36 25 -36 3 0 4 11 3 25 0 14 -4 25 -8 25 -16 0 -8
19 10 23 9 3 -3 3 -28 0 -49 -5 -533 -99 -590 -113 l-36 -10 162 -165 162
-165 228 -2 227 -3 49 -135 c45 -128 108 -298 149 -402 l18 -48 -84 0 -84 0
-88 101 -87 102 -108 -6 -107 -6 -122 157 c-145 186 -284 353 -365 440 l-59
62 -110 10 c-296 27 -896 22 -1120 -9 -55 -8 -63 -12 -108 -62 -71 -78 -271
-328 -379 -474 l-93 -125 -110 0 -111 0 -40 -42 c-22 -24 -60 -67 -83 -95
l-43 -53 -89 0 c-49 0 -89 1 -89 3 0 1 49 133 108 292 l109 290 230 5 230 5
105 115 c58 63 127 136 154 161 l49 45 -210 43 c-517 104 -533 108 -501 120
87 35 497 97 826 126 373 32 608 39 875 25z m2856 -43 c-10 -9 -11 -8 -5 6 3
10 9 15 12 12 3 -3 0 -11 -7 -18z m-81 -31 c0 -2 -7 -7 -16 -10 -8 -3 -12 -2
-9 4 6 10 25 14 25 6z m-105 -35 c3 -5 1 -12 -5 -16 -5 -3 -10 1 -10 9 0 18 6
21 15 7z m51 -3 c5 -8 2 -9 -11 -4 -15 5 -16 4 -5 -9 8 -10 9 -15 1 -15 -6 0
-11 2 -11 4 0 2 -3 11 -6 20 -7 19 21 22 32 4z m-5156 -42 c0 -3 -4 -8 -10
-11 -5 -3 -10 -1 -10 4 0 6 5 11 10 11 6 0 10 -2 10 -4z m985 -256 c61 -6 125
-13 142 -16 l33 -5 -51 -45 c-31 -27 -57 -43 -66 -40 -8 3 -88 6 -177 6 l-163
0 -37 55 c-20 30 -36 58 -36 61 0 8 185 -1 355 -16z m2768 -11 c-10 -17 -29
-44 -43 -59 l-25 -29 -176 -2 -176 -2 -47 39 c-40 33 -44 40 -29 46 21 8 344
35 446 37 l68 1 -18 -31z m-1055 -84 c28 -10 52 -22 52 -27 0 -4 -252 -8 -560
-8 -353 0 -560 4 -560 10 0 5 28 18 63 29 59 19 85 20 507 18 408 -3 449 -5
498 -22z m-88 -454 c434 -6 457 -7 485 -26 l30 -20 -125 -6 c-182 -8 -1576
-10 -1660 -3 -62 6 -69 9 -57 21 38 39 80 42 482 41 215 0 595 -3 845 -7z
m-1475 -460 l90 -46 -217 -3 c-120 -1 -314 -1 -432 0 l-213 3 20 54 21 53 320
-7 321 -7 90 -47z m2862 20 c8 -22 8 -32 -1 -41 -8 -8 -7 -10 7 -5 10 4 17 2
17 -4 0 -7 -24 -11 -62 -11 -35 0 -228 -3 -430 -7 -203 -3 -368 -3 -368 0 0 4
39 27 88 51 l87 45 325 0 326 1 11 -29z m-2686 -441 c248 -118 567 -189 849
-190 299 0 669 84 922 211 l57 29 293 0 293 -1 -35 -29 c-59 -50 -258 -170
-390 -235 -239 -119 -526 -210 -780 -246 -146 -21 -607 -18 -730 4 -293 55
-586 156 -805 279 -102 57 -308 193 -326 214 -10 12 31 14 268 14 l280 0 104
-50z m-910 -417 c10 -11 10 -14 2 -9 -8 4 -13 2 -13 -4 0 -6 -5 -8 -12 -4 -9
6 -9 9 0 12 7 2 10 8 6 13 -9 15 3 10 17 -8z m-104 -29 c-2 -3 -17 -7 -33 -10
l-29 -5 30 19 c17 10 32 15 34 10 1 -5 1 -11 -2 -14z m-66 -21 c13 -16 12 -17
-3 -4 -17 13 -22 21 -14 21 2 0 10 -8 17 -17z m72 -8 c-3 -9 -8 -14 -10 -11
-3 3 -2 9 2 15 9 16 15 13 8 -4z"/>
<path d="M8032 5211 c6 -20 58 -34 58 -16 0 8 -8 11 -21 8 -12 -4 -25 0 -31 8
-8 12 -9 12 -6 0z"/>
<path d="M3440 3040 c0 -5 5 -10 11 -10 5 0 8 -4 5 -8 -2 -4 4 -8 15 -8 24 0
24 0 -6 20 -14 9 -25 12 -25 6z"/>
<path d="M7376 6027 c3 -10 9 -15 12 -12 3 3 0 11 -7 18 -10 9 -11 8 -5 -6z"/>
</g>
</svg>
